<svg width="278" height="278" viewBox="0 0 278 278" fill="none" xmlns="http://www.w3.org/2000/svg">
<rect width="278" height="278" rx="139" fill="#1A1924"/>
<path d="M74.185 186.692C74.6465 185.007 73.635 182.665 72.6696 180.977C72.3703 180.472 72.0442 179.984 71.6927 179.515C63.4129 166.958 58.9999 152.248 59.0004 137.208C58.8619 94.0345 94.6619 59 138.931 59C177.539 59 209.769 85.7461 217.296 121.25C218.426 126.514 218.997 131.882 219 137.265C219 180.5 184.581 216.084 140.312 216.084C133.269 216.084 123.773 214.315 118.593 212.865C113.412 211.415 108.239 209.492 106.904 208.977C105.538 208.452 104.087 208.182 102.623 208.18C101.027 208.175 99.4469 208.493 97.9772 209.115L71.885 218.53C71.3148 218.777 70.7105 218.935 70.0927 219C69.604 218.998 69.1205 218.9 68.6701 218.71C68.2197 218.521 67.8114 218.244 67.4688 217.895C67.1261 217.547 66.8559 217.134 66.6739 216.681C66.4918 216.227 66.4015 215.742 66.4081 215.253C66.4402 214.825 66.5175 214.401 66.6388 213.988L74.185 186.692Z" stroke="#633BBC" stroke-width="10" stroke-miterlimit="10" stroke-linecap="round"/>
<path d="M102.077 151.307C108.875 151.307 114.385 145.797 114.385 139C114.385 132.202 108.875 126.692 102.077 126.692C95.2799 126.692 89.7696 132.202 89.7696 139C89.7696 145.797 95.2799 151.307 102.077 151.307Z" fill="#633BBC"/>
<path d="M139 151.307C145.798 151.307 151.308 145.797 151.308 139C151.308 132.202 145.798 126.692 139 126.692C132.203 126.692 126.693 132.202 126.693 139C126.693 145.797 132.203 151.307 139 151.307Z" fill="#633BBC"/>
<path d="M175.923 151.307C182.721 151.307 188.231 145.797 188.231 139C188.231 132.202 182.721 126.692 175.923 126.692C169.126 126.692 163.616 132.202 163.616 139C163.616 145.797 169.126 151.307 175.923 151.307Z" fill="#633BBC"/>
</svg>
